<svg width="50" height="50" viewBox="0 0 50 50" fill="none" xmlns="http://www.w3.org/2000/svg">
<path d="M23.0174 44.553V26.4126L7.15694 17.2432V33.1533C7.15694 33.8802 7.33041 34.5411 7.67736 35.1358C8.02431 35.7306 8.51169 36.2097 9.1395 36.5732L23.0174 44.553ZM26.9826 44.553L40.8605 36.5732C41.4883 36.2097 41.9757 35.7306 42.3226 35.1358C42.6696 34.5411 42.8431 33.8802 42.8431 33.1533V17.2432L26.9826 26.4126V44.553ZM34.8632 17.2928L40.7118 13.8728L26.9826 5.99217C26.3547 5.6287 25.6939 5.44696 25 5.44696C24.3061 5.44696 23.6452 5.6287 23.0174 5.99217L19.1019 8.22255L34.8632 17.2928ZM25 22.9926L30.8981 19.6223L15.1863 10.5025L9.23863 13.9224L25 22.9926Z" fill="#1D4F91"/>
</svg>
